/* XPM */
static char * fontinstall_xpm[] = {
"32 32 532 2",
"  	c None",
". 	c #535D69",
"+ 	c #525B67",
"@ 	c #515B67",
"# 	c #525C68",
"$ 	c #535C68",
"% 	c #545D69",
"& 	c #545E6A",
"* 	c #555E6A",
"= 	c #555F6B",
"- 	c #56606C",
"; 	c #5A626E",
"> 	c #606974",
", 	c #8C939B",
"' 	c #D6D8DB",
") 	c #EAEBEC",
"! 	c #EAECED",
"~ 	c #ECEFF0",
"{ 	c #E6E5E6",
"] 	c #DBD4D7",
"^ 	c #D3C7CB",
"/ 	c #D7CFD2",
"( 	c #E6E7E8",
"_ 	c #E6E8E9",
": 	c #DDDADC",
"< 	c #D4CCCF",
"[ 	c #CCC1C5",
"} 	c #DADADB",
"| 	c #D9DADB",
"1 	c #D6D8D9",
"2 	c #D3D4D5",
"3 	c #D0D1D3",
"4 	c #CDCFD0",
"5 	c #CACCCD",
"6 	c #C4C5C7",
"7 	c #9FA3A7",
"8 	c #676F7A",
"9 	c #868C95",
"0 	c #F3F3F3",
"a 	c #FEFEFE",
"b 	c #FFFFFF",
"c 	c #B2848D",
"d 	c #7A2F3F",
"e 	c #731D2F",
"f 	c #7F1525",
"g 	c #721A2B",
"h 	c #8C4957",
"i 	c #E4D6D9",
"j 	c #853E4C",
"k 	c #772A3A",
"l 	c #721C2D",
"m 	c #7A1929",
"n 	c #A97882",
"o 	c #F8F9F9",
"p 	c #F1F1F1",
"q 	c #EDEDED",
"r 	c #ECEBEB",
"s 	c #E9E9E9",
"t 	c #E6E6E6",
"u 	c #DCDCDC",
"v 	c #B9BCBD",
"w 	c #57606B",
"x 	c #BFC2C6",
"y 	c #DDCACE",
"z 	c #7F2D3D",
"A 	c #821A2C",
"B 	c #CC5661",
"C 	c #DF717A",
"D 	c #D36B74",
"E 	c #DD6973",
"F 	c #9A2533",
"G 	c #5B0214",
"H 	c #952231",
"I 	c #DA727C",
"J 	c #EF969C",
"K 	c #9B2736",
"L 	c #89505C",
"M 	c #DFE1E1",
"N 	c #EEEEEE",
"O 	c #ECECEC",
"P 	c #E3E3E3",
"Q 	c #E1E1E1",
"R 	c #D6D6D5",
"S 	c #6C737C",
"T 	c #CED1D4",
"U 	c #C5A3AA",
"V 	c #710B1D",
"W 	c #CA606A",
"X 	c #F1A3A9",
"Y 	c #A53745",
"Z 	c #570412",
"` 	c #581420",
" .	c #530815",
"..	c #B83844",
"+.	c #621421",
"@.	c #D96F78",
"#.	c #FEFAFB",
"$.	c #F5D7DA",
"%.	c #600E1C",
"&.	c #8D7B7F",
"*.	c #A5A6A6",
"=.	c #C0C0C0",
"-.	c #E0E0E0",
";.	c #DDDDDD",
">.	c #D8D7D7",
",.	c #777E85",
"'.	c #BA919A",
").	c #6E0215",
"!.	c #DA7881",
"~.	c #F3CBCE",
"{.	c #7C1523",
"].	c #572A34",
"^.	c #A49D9F",
"/.	c #B4B9B8",
"(.	c #846A6F",
"_.	c #60101C",
":.	c #BA2431",
"<.	c #F0B5BA",
"[.	c #F9E4E6",
"}.	c #DA989E",
"|.	c #510412",
"1.	c #ABAEAD",
"2.	c #A4A4A4",
"3.	c #C7C7C7",
"4.	c #EAEAEA",
"5.	c #DADADA",
"6.	c #777D84",
"7.	c #9F7B85",
"8.	c #7E091A",
"9.	c #DE848C",
"0.	c #F5B4B8",
"a.	c #861826",
"b.	c #673B44",
"c.	c #AEADAD",
"d.	c #AEAFAF",
"e.	c #ABABAB",
"f.	c #BABABA",
"g.	c #5F0312",
"h.	c #D56771",
"i.	c #F4D1D4",
"j.	c #F5D5D9",
"k.	c #B84652",
"l.	c #663B44",
"m.	c #A9ACAB",
"n.	c #A0A0A0",
"o.	c #D9D9D9",
"p.	c #D7D7D7",
"q.	c #D4D4D3",
"r.	c #787E84",
"s.	c #634C59",
"t.	c #730D1E",
"u.	c #DB7981",
"v.	c #F2C0C4",
"w.	c #9E2B38",
"x.	c #53242E",
"y.	c #ABA9A9",
"z.	c #ADADAD",
"A.	c #ACACAC",
"B.	c #D3D3D3",
"C.	c #FEFFFF",
"D.	c #6C0013",
"E.	c #E0959C",
"F.	c #EFBBC0",
"G.	c #F3BCC2",
"H.	c #7E0A17",
"I.	c #877579",
"J.	c #A5A5A5",
"K.	c #A8A8A8",
"L.	c #D6D6D6",
"M.	c #641022",
"N.	c #B63442",
"O.	c #ECAAB0",
"P.	c #D8777F",
"Q.	c #51020F",
"R.	c #A09698",
"S.	c #AFAFAF",
"T.	c #DBDBDB",
"U.	c #FAFAFA",
"V.	c #EAE2E3",
"W.	c #710518",
"X.	c #E28F96",
"Y.	c #ECAAAF",
"Z.	c #E97C84",
"`.	c #520D1A",
" +	c #989092",
".+	c #C1C1C1",
"++	c #DEDEDE",
"@+	c #D8D8D8",
"#+	c #D4D4D4",
"$+	c #D2D2D1",
"%+	c #777D85",
"&+	c #911727",
"*+	c #E98991",
"=+	c #EB989E",
"-+	c #8F1523",
";+	c #75545B",
">+	c #B1B3B3",
",+	c #C8C8C8",
"'+	c #F8F8F8",
")+	c #F8F9F8",
"!+	c #CEB3B8",
"~+	c #790E20",
"{+	c #E3868D",
"]+	c #E8989E",
"^+	c #BE3F4B",
"/+	c #501F2A",
"(+	c #9F9D9D",
"_+	c #A1A1A1",
":+	c #D2D2D2",
"<+	c #731022",
"[+	c #D15C67",
"}+	c #E48A92",
"|+	c #D34B57",
"1+	c #4E1521",
"2+	c #A49FA0",
"3+	c #B1B1B1",
"4+	c #F7F7F7",
"5+	c #F9FBFA",
"6+	c #965A66",
"7+	c #9A2333",
"8+	c #E47F87",
"9+	c #841E2C",
"0+	c #68434A",
"a+	c #A2A4A3",
"b+	c #A7A7A7",
"c+	c #DFDFDF",
"d+	c #D5D4D4",
"e+	c #777E84",
"f+	c #6A1022",
"g+	c #891B2B",
"h+	c #E06C75",
"i+	c #E17079",
"j+	c #8E202C",
"k+	c #643942",
"l+	c #E2E2E2",
"m+	c #F6F6F6",
"n+	c #EEE9EA",
"o+	c #77293A",
"p+	c #C43745",
"q+	c #E0727B",
"r+	c #DB646E",
"s+	c #5C0916",
"t+	c #8C7B7F",
"u+	c #A2A3A3",
"v+	c #E4E4E4",
"w+	c #D7D6D6",
"x+	c #640F21",
"y+	c #C1313F",
"z+	c #DC626B",
"A+	c #D65560",
"B+	c #5A0614",
"C+	c #96888A",
"D+	c #ADAEAE",
"E+	c #B7B7B7",
"F+	c #F5F5F5",
"G+	c #F6F7F6",
"H+	c #C7ADB2",
"I+	c #870F21",
"J+	c #DD5762",
"K+	c #DB5F6A",
"L+	c #C74550",
"M+	c #530C18",
"N+	c #A6A9A8",
"O+	c #9FA09F",
"P+	c #C6C6C6",
"Q+	c #E8E8E8",
"R+	c #E5E5E5",
"S+	c #DAD9D9",
"T+	c #787D85",
"U+	c #7D1223",
"V+	c #DB4652",
"W+	c #D74F5B",
"X+	c #BF3441",
"Y+	c #571723",
"Z+	c #B3B8B7",
"`+	c #CFCFCF",
" @	c #F2F2F2",
".@	c #7A2736",
"+@	c #BF2C3B",
"@@	c #D74D59",
"#@	c #D84D59",
"$@	c #AF2531",
"%@	c #673F47",
"&@	c #A6A8A8",
"*@	c #9F9F9F",
"=@	c #E7E7E7",
"-@	c #DDDDDC",
";@	c #787E85",
">@	c #9A1828",
",@	c #D74451",
"'@	c #D54350",
")@	c #B62634",
"!@	c #694048",
"~@	c #B0B2B2",
"{@	c #F4F4F4",
"]@	c #F2F3F3",
"^@	c #965B67",
"/@	c #8B1525",
"(@	c #D43E4B",
"_@	c #D4414E",
":@	c #D9424F",
"<@	c #7D0F1D",
"[@	c #88797C",
"}@	c #A3A4A4",
"|@	c #EFEFEF",
"1@	c #EBEBEB",
"2@	c #DFDFDE",
"3@	c #787E86",
"4@	c #AE2230",
"5@	c #D64350",
"6@	c #A21C29",
"7@	c #7A5E64",
"8@	c #BDBDBD",
"9@	c #F5F7F6",
"0@	c #C5A9B0",
"a@	c #761425",
"b@	c #D22E3C",
"c@	c #D5424F",
"d@	c #D83845",
"e@	c #53131F",
"f@	c #999394",
"g@	c #999294",
"h@	c #C7C6C7",
"i@	c #F0F0F0",
"j@	c #E1E1E0",
"k@	c #787F85",
"l@	c #6B1022",
"m@	c #BD2B39",
"n@	c #941725",
"o@	c #7A5F65",
"p@	c #ACADAD",
"q@	c #CCCBCB",
"r@	c #F7F9F9",
"s@	c #B69098",
"t@	c #721224",
"u@	c #C62433",
"v@	c #9C1D2C",
"w@	c #D6424F",
"x@	c #B42733",
"y@	c #53232E",
"z@	c #7E6469",
"A@	c #4C111D",
"B@	c #78313F",
"C@	c #EEEDEE",
"D@	c #BE2C3A",
"E@	c #AF2431",
"F@	c #55232D",
"G@	c #8A8A8A",
"H@	c #B2AAAC",
"I@	c #B29198",
"J@	c #711122",
"K@	c #C32635",
"L@	c #8D1828",
"M@	c #971D2B",
"N@	c #D6414E",
"O@	c #891926",
"P@	c #55222D",
"Q@	c #52131F",
"R@	c #B8202E",
"S@	c #73091B",
"T@	c #B9A0A5",
"U@	c #EFF0F0",
"V@	c #B12231",
"W@	c #D64450",
"X@	c #CF3A47",
"Y@	c #680F1C",
"Z@	c #4B1A26",
"`@	c #5B1B29",
" #	c #821122",
".#	c #CB2D3B",
"+#	c #A11C2C",
"@#	c #4E0B19",
"##	c #AF2432",
"$#	c #D63E4B",
"%#	c #64111E",
"&#	c #4C0B18",
"*#	c #B71F2D",
"=#	c #921624",
"-#	c #75434D",
";#	c #ABACAC",
">#	c #AEAEAE",
",#	c #E8E7E7",
"'#	c #757B82",
")#	c #821324",
"!#	c #D73C49",
"~#	c #D83A46",
"{#	c #B42633",
"]#	c #C22C39",
"^#	c #D53542",
"/#	c #8D1625",
"(#	c #571C29",
"_#	c #450E1A",
":#	c #CD303D",
"<#	c #D6404D",
"[#	c #99212E",
"}#	c #A61F2C",
"|#	c #9D1927",
"1#	c #531E2A",
"2#	c #A5A1A2",
"3#	c #FAF9F9",
"4#	c #C7C9CB",
"5#	c #4A515B",
"6#	c #691022",
"7#	c #971C2B",
"8#	c #D83F4B",
"9#	c #D64351",
"0#	c #DB434F",
"a#	c #C32D39",
"b#	c #630C1A",
"c#	c #643D45",
"d#	c #8C8587",
"e#	c #4C1925",
"f#	c #BB2A36",
"g#	c #D74450",
"h#	c #DA3643",
"i#	c #851623",
"j#	c #561E29",
"k#	c #A29D9F",
"l#	c #FCFCFC",
"m#	c #CACDD0",
"n#	c #A0A6AC",
"o#	c #A3A8AE",
"p#	c #9EA4AA",
"q#	c #9CA1A7",
"r#	c #A2A6AB",
"s#	c #24292D",
"t#	c #610E1F",
"u#	c #73101E",
"v#	c #A31E2A",
"w#	c #9E1B29",
"x#	c #78101D",
"y#	c #4C1621",
"z#	c #69474E",
"A#	c #929393",
"B#	c #969696",
"C#	c #69434B",
"D#	c #650D1C",
"E#	c #A31D2B",
"F#	c #951825",
"G#	c #570E1A",
"H#	c #5F333D",
"I#	c #A7A4A4",
"J#	c #C5C5C5",
"K#	c #C5C8CB",
"L#	c #CBCED1",
"M#	c #FBFBFA",
"N#	c #F1F1F0",
"O#	c #D2D1D1",
"P#	c #6B6F76",
"Q#	c #3B2A34",
"R#	c #62474E",
"S#	c #6D5258",
"T#	c #7B6D70",
"U#	c #888485",
"V#	c #909191",
"W#	c #929292",
"X#	c #C6C5C6",
"Y#	c #BEA7AD",
"Z#	c #75535A",
"`#	c #7D666C",
" $	c #968B8E",
".$	c #A9A9A9",
"+$	c #CECECE",
"@$	c #C4C5C6",
"#$	c #C0C4C7",
"$$	c #F9F9F9",
"%$	c #D3D3D2",
"&$	c #8F9398",
"*$	c #939799",
"=$	c #949695",
"-$	c #8E8E8E",
";$	c #939393",
">$	c #A3A3A3",
",$	c #CDCDCD",
"'$	c #E3E4E4",
")$	c #CACCCB",
"!$	c #A9AAAA",
"~$	c #A6A6A6",
"{$	c #B4B4B4",
"]$	c #FBFBFB",
"^$	c #CBCBCB",
"/$	c #757A80",
"($	c #D0D0D0",
"_$	c #A3A7AA",
":$	c #0B0E11",
"<$	c #AFB2B5",
"[$	c #B1B0B0",
"}$	c #6E7378",
"|$	c #B8BABC",
"1$	c #282C2F",
"2$	c #ADB0B3",
"3$	c #CCCCCC",
"4$	c #B5B5B5",
"5$	c #F9F9F8",
"6$	c #B7B8BB",
"7$	c #3C4349",
"8$	c #A8AAAE",
"9$	c #CDCCCC",
"0$	c #6E7379",
"a$	c #EDECEC",
"b$	c #D7D7D6",
"c$	c #A0A3A7",
"d$	c #26292E",
"e$	c #858B92",
"f$	c #C3C3C3",
"g$	c #7C8187",
"h$	c #8B8F94",
"i$	c #070A0E",
"j$	c #616A75",
"k$	c #9A9EA3",
"l$	c #D1D0D0",
"m$	c #D1D1D0",
"n$	c #D4D3D3",
"o$	c #D5D5D4",
"p$	c #D9D8D8",
"q$	c #DADAD9",
"r$	c #DCDCDB",
"s$	c #DEDDDD",
"t$	c #E0DFDF",
"u$	c #E0E0DF",
"v$	c #E1E0DF",
"w$	c #E5E5E4",
"x$	c #9FA2A4",
"y$	c #9A9FA5",
"z$	c #61656D",
"A$	c #555D68",
"B$	c #565F6A",
"C$	c #636B74",
"D$	c #626A73",
"E$	c #5E656E",
"F$	c #474F59",
"G$	c #1A1D22",
"                                                                ",
"            . + @ + + + # # # # # # $ . . % & & * = = - ;       ",
"        > , ' ) ! ~ { ] ^ / ( _ _ : < [ } | 1 2 3 4 5 6 7 8     ",
"        9 0 a a b c d e f g h i j k l m n o 0 p q r s t u v w   ",
"        x a b y z A B C D E F G H I J K L M q N O s t P Q R S   ",
"        T b U V W X Y Z `  ...+.@.#.$.%.&.*.=.q s t P -.;.>.,.  ",
"        T '.).!.~.{.].^./.(._.:.<.[.}.|.1.2.3.4.t P Q ;.5.R 6.  ",
"        7.8.9.0.a.b.c.d.e.f.g.h.i.j.k.l.m.n.-.t P -.;.o.p.q.r.  ",
"      s.t.u.v.w.x.y.z.A.B.C.D.E.F.G.H.I.J.K.4.P -.;.o.L.B.B.6.  ",
"      M.N.O.P.Q.R.S.A.T.U.V.W.X.Y.Z.`. +n..+t Q ++T.@+#+B.$+%+  ",
"      &+*+=+-+;+>+e.,+'+)+!+~+{+]+^+/+(+_+@+P Q ++u o.@+L.:+6.  ",
"    <+[+}+|+1+2+A.3+'+4+5+6+7+8+8+9+0+a+b+c+P Q c+;.;.5.p.d+e+  ",
"  f+g+h+i+j+k+d.A.l+4+m+n+o+p+q+r+s+t+u+S.t v+P l+Q -.u T.w+r.  ",
"  x+y+z+A+B+C+D+E+F+m+G+H+I+J+K+L+M+N+O+P+Q+t R+R+v+l+Q -.S+T+  ",
"  U+V+W+X+Y+Z+e.`+4+F+ @.@+@@@#@$@%@&@*@l+s Q+s Q+=@t t v+-@;@  ",
"  >@,@'@)@!@~@b+ @{@]@^@/@(@_@:@<@[@}@z.|@1@O 1@O O 1@4.s 2@3@  ",
"  4@5@5@6@7@D+8@'+9@0@a@b@_@c@d@e@f@g@h@|@N N i@i@i@i@|@N j@k@  ",
"l@m@'@,@n@o@p@q@r@s@t@u@v@(@w@x@y@z@A@B@C@ @0 F+F+F+F+{@0 P k@  ",
"l@D@c@'@E@F@G@H@I@J@K@L@M@N@N@O@P@Q@R@S@T@U@4+m+m+m+m+m+m+t ;@  ",
"  V@W@c@X@Y@Z@`@ #.#+#@###w@$#%#&#*#=#-#;#>#N '+4+4+4+4+4+,#'#  ",
"  )#!#c@c@~#{#]#^#/#(#_#:#c@<#[#}#|#1#2#e.e.O 3#U.U.U.U.'+4#5#  ",
"  6#7#8#9#,@0#a#b#c#d#e#f#,@g#h#i#j#k#A.e.T.l#m#n#o#n#p#q#r#s#  ",
"    t#u#v#w#x#y#z#A#B#C#D#E#F#G#H#I#e.e.J#U.K#L#b M#N#2@O#P#    ",
"      Q#R#S#T#U#V#W#B#X#Y#Z#`# $.$e..$+$0 @$#$b $$ @c+%$&$      ",
"        *$=$-$-$;$>$,$++'$)$!$~$A.{$o.]$^$/$b $$0 Q ($_$:$      ",
"        <$P+.+.+,+#+o.;.l+Q+P l+4.0 '+|@[$}$b {@l+($|$1$        ",
"        2$3$3$^$+$#+@+;.l+=@1@p F+m+4+0 4$}$5$R+:+6$7$          ",
"        8$9$3$^$+$B.@+;.Q =@1@i@{@m+4+]$8@0$a$b$c$d$            ",
"        e$,$3$^$+$B.p.u l+t 1@|@F+m+'+]$f$g$5.h$i$              ",
"        j$k$l$l$m$n$o$w+p$q$r$s$t$u$v$w$x$y$z$                  ",
"          A$B$C$D$D$D$D$D$D$D$D$D$D$D$E$F$G$                    ",
"                                                                "};
