/* XPM */
static char * fontinstall_xpm[] = {
"16 16 187 2",
"  	c None",
". 	c #A3A8AE",
"+ 	c #EBEEEE",
"@ 	c #DEDBDD",
"# 	c #966874",
"$ 	c #8D4C59",
"% 	c #CCBEC3",
"& 	c #9E7781",
"* 	c #874755",
"= 	c #D1C7CA",
"- 	c #DFE0E1",
"; 	c #D9DADC",
"> 	c #D4D6D7",
", 	c #B1B3B7",
"' 	c #E2E3E5",
") 	c #CAA4AB",
"! 	c #993746",
"~ 	c #BA4F5A",
"{ 	c #AA4B55",
"] 	c #770E1D",
"^ 	c #D18088",
"/ 	c #B55661",
"( 	c #A49498",
"_ 	c #E8E8E8",
": 	c #EAEAEA",
"< 	c #E4E4E4",
"[ 	c #D4D5D5",
"} 	c #60656A",
"| 	c #A87C85",
"1 	c #D4878F",
"2 	c #97434D",
"3 	c #97898C",
"4 	c #958B8D",
"5 	c #AA3743",
"6 	c #F9D2D6",
"7 	c #7C3742",
"8 	c #ABAFAF",
"9 	c #DFDFDF",
"0 	c #DDDDDD",
"a 	c #CFD0D0",
"b 	c #5A5D61",
"c 	c #5F2233",
"d 	c #B24956",
"e 	c #AB4D58",
"f 	c #887A7E",
"g 	c #B6B7B7",
"h 	c #E2D9DB",
"i 	c #C16470",
"j 	c #E4A3A8",
"k 	c #82565C",
"l 	c #AFB1B0",
"m 	c #E0E0E0",
"n 	c #DEDEDE",
"o 	c #D7D7D7",
"p 	c #CBCBCC",
"q 	c #595C62",
"r 	c #9A2736",
"s 	c #DD7E87",
"t 	c #83535A",
"u 	c #B4B6B6",
"v 	c #EBEBEB",
"w 	c #E0D2D4",
"x 	c #C95F6A",
"y 	c #CB6C75",
"z 	c #907C7F",
"A 	c #B8B8B8",
"B 	c #E3E3E3",
"C 	c #DADADA",
"D 	c #CDCDCE",
"E 	c #720E20",
"F 	c #CA515C",
"G 	c #BB4954",
"H 	c #9C9193",
"I 	c #C8C8C8",
"J 	c #FBFEFE",
"K 	c #B7828B",
"L 	c #D35B65",
"M 	c #AB3E49",
"N 	c #928D8F",
"O 	c #D2D2D2",
"P 	c #E5E5E5",
"Q 	c #84192A",
"R 	c #D54551",
"S 	c #92303B",
"T 	c #A09E9F",
"U 	c #F0F0F0",
"V 	c #DBD1D3",
"W 	c #9C1F2F",
"X 	c #DD4854",
"Y 	c #7B2B36",
"Z 	c #A1A2A2",
"` 	c #ECECEC",
" .	c #E9E9E9",
"..	c #DBDCDD",
"+.	c #5A5E63",
"@.	c #861B2B",
"#.	c #DB4350",
"$.	c #7E2C36",
"%.	c #B2B3B3",
"&.	c #EAE4E5",
"*.	c #933140",
"=.	c #CE3341",
"-.	c #D33846",
";.	c #644048",
">.	c #9C7E84",
",.	c #F1F1F1",
"'.	c #F2F2F2",
").	c #F3F3F3",
"!.	c #E4E5E5",
"~.	c #5B5E63",
"{.	c #871B2B",
"].	c #D9424F",
"^.	c #962733",
"/.	c #6D4E55",
"(.	c #9C3141",
"_.	c #841423",
":.	c #BF323F",
"<.	c #A52734",
"[.	c #621824",
"}.	c #791121",
"|.	c #BFC1C1",
"1.	c #F7F7F7",
"2.	c #F6F6F6",
"3.	c #EAEBEB",
"4.	c #7D1527",
"5.	c #C03543",
"6.	c #D73F4C",
"7.	c #C12C3A",
"8.	c #992B37",
"9.	c #532933",
"0.	c #CF3442",
"a.	c #C13240",
"b.	c #961F2C",
"c.	c #958789",
"d.	c #B7B8B8",
"e.	c #E8E9EA",
"f.	c #EDEEEF",
"g.	c #ECEDED",
"h.	c #C7C9CC",
"i.	c #323538",
"j.	c #601724",
"k.	c #702E38",
"l.	c #794E54",
"m.	c #858183",
"n.	c #9B9698",
"o.	c #8B4752",
"p.	c #7C444D",
"q.	c #9A9093",
"r.	c #AFB0B0",
"s.	c #E2E2E3",
"t.	c #E5E7E8",
"u.	c #ECEDEE",
"v.	c #D7D7D8",
"w.	c #81858A",
"x.	c #A8ACAD",
"y.	c #9FA1A0",
"z.	c #B2B2B2",
"A.	c #DBDBDB",
"B.	c #E4E7E7",
"C.	c #BFC1C0",
"D.	c #C9C9C9",
"E.	c #B0B1B1",
"F.	c #EBECED",
"G.	c #9D9FA2",
"H.	c #000000",
"I.	c #404D5A",
"J.	c #BEBFC0",
"K.	c #CDCDCD",
"L.	c #FBFBFB",
"M.	c #A8A9A9",
"N.	c #DBDCDC",
"O.	c #9C9EA0",
"P.	c #17191B",
"Q.	c #969BA0",
"R.	c #C2C3C4",
"S.	c #C6C7C8",
"T.	c #CECFD0",
"U.	c #D6D7D8",
"V.	c #DEDEDF",
"W.	c #E5E5E7",
"X.	c #EBECEC",
"Y.	c #9EA0A3",
"Z.	c #818489",
"`.	c #585C61",
" +	c #505458",
".+	c #515458",
"++	c #2E3034",
"                                ",
"    . + @ # $ % & * = - ; > ,   ",
"    ' ) ! ~ { ] ^ / ( _ : < [ } ",
"    | 1 2 3 4 5 6 7 8 9 < 0 a b ",
"  c d e f g h i j k l m n o p q ",
"  r s t u v w x y z A B 0 C D q ",
"E F G H I J K L M N O P B m [ b ",
"Q R S T U V W X Y Z ` :  ._ ..+.",
"@.#.$.%.&.*.=.-.;.>.,.'.).'.!.~.",
"{.].^./.(._.:.<.[.}.|.'.1.2.3.+.",
"4.5.6.7.8.9.0.a.b.c.d.e.f.g.h.i.",
"  j.k.l.m.n.o.p.q.r.s.t.u.v.w.  ",
"    x.y.z.A.B.C.D.1.E.F.< G.H.  ",
"  I.J.K.O A.P U 1.L.M.N.O.P.    ",
"    Q.R.S.T.U.V.W.X.Y.Z.H.      ",
"      `. +.+ + + +.+++          "};
